<svg width="15" height="10" viewBox="0 0 15 10" fill="none" xmlns="http://www.w3.org/2000/svg">
<path d="M9.78005 4.84606L13.0237 3.97705C13.1953 3.9275 13.375 3.91266 13.5524 3.9334C13.7297 3.95414 13.9012 4.01003 14.0567 4.09782C14.2122 4.18561 14.3486 4.30352 14.458 4.44467C14.5674 4.58581 14.6475 4.74736 14.6938 4.91984C14.74 5.09233 14.7513 5.27231 14.7272 5.44924C14.703 5.62617 14.6438 5.7965 14.553 5.95027C14.4622 6.10405 14.3417 6.23818 14.1984 6.34481C14.0552 6.45144 13.8921 6.52845 13.7188 6.57131L3.98847 9.179L1 5.80774L2.94553 5.2866L4.59086 6.2362L6.53639 5.71506L4.02272 1.52181L5.96891 1L9.78005 4.84606Z" fill="#73C971" stroke="#73C971" stroke-width="0.5" stroke-linecap="round" stroke-linejoin="round"/>
</svg>
