<svg width="14" height="9" viewBox="0 0 14 9" fill="none" xmlns="http://www.w3.org/2000/svg">
<path d="M8.84237 4.43531L11.7396 3.65911C11.8929 3.61486 12.0534 3.6016 12.2118 3.62013C12.3702 3.63865 12.5234 3.68857 12.6623 3.76699C12.8012 3.8454 12.923 3.95072 13.0207 4.07679C13.1185 4.20286 13.19 4.34715 13.2313 4.50122C13.2726 4.65529 13.2827 4.81604 13.2611 4.97407C13.2396 5.13211 13.1867 5.28425 13.1056 5.4216C13.0245 5.55895 12.9168 5.67876 12.7889 5.77401C12.661 5.86925 12.5153 5.93803 12.3605 5.97632L3.66931 8.30551L1 5.29429L2.73775 4.82881L4.20737 5.67699L5.94512 5.21151L3.6999 1.46608L5.43825 1L8.84237 4.43531Z" fill="white" stroke="white" stroke-width="0.446602" stroke-linecap="round" stroke-linejoin="round"/>
</svg>
