<svg width="30" height="22" viewBox="0 0 30 22" fill="none" xmlns="http://www.w3.org/2000/svg">
<path d="M30 16C30 17.6562 29.4141 19.0703 28.2422 20.2422C27.0703 21.4141 25.6562 22 24 22H7C5.07292 22 3.42448 21.3151 2.05469 19.9453C0.684896 18.5755 0 16.9271 0 15C0 13.625 0.369792 12.3672 1.10938 11.2266C1.84896 10.0859 2.82292 9.23438 4.03125 8.67188C4.01042 8.38021 4 8.15625 4 8C4 5.79167 4.78125 3.90625 6.34375 2.34375C7.90625 0.78125 9.79167 0 12 0C13.6458 0 15.138 0.458333 16.4766 1.375C17.8151 2.29167 18.7917 3.48958 19.4062 4.96875C20.1354 4.32292 21 4 22 4C23.1042 4 24.0469 4.39062 24.8281 5.17188C25.6094 5.95312 26 6.89583 26 8C26 8.78125 25.7865 9.5 25.3594 10.1562C26.7031 10.4688 27.8125 11.1693 28.6875 12.2578C29.5625 13.3464 30 14.5938 30 16Z" fill="#17A1FA"/>
</svg>
