<svg width="28" height="28" viewBox="0 0 28 28" fill="none" xmlns="http://www.w3.org/2000/svg">
<path d="M27.5625 0.171875C27.9062 0.421875 28.0469 0.755208 27.9844 1.17188L23.9844 25.1719C23.9323 25.474 23.7656 25.7083 23.4844 25.875C23.3385 25.9583 23.1771 26 23 26C22.8854 26 22.7604 25.974 22.625 25.9219L15.5469 23.0312L11.7656 27.6406C11.5781 27.8802 11.3229 28 11 28C10.8646 28 10.75 27.9792 10.6562 27.9375C10.4583 27.8646 10.2995 27.7422 10.1797 27.5703C10.0599 27.3984 10 27.2083 10 27V21.5469L23.5 5L6.79687 19.4531L0.624997 16.9219C0.23958 16.776 0.0312466 16.4896 -3.39083e-06 16.0625C-0.0208367 15.6458 0.14583 15.3385 0.499997 15.1406L26.5 0.140625C26.6562 0.046875 26.8229 0 27 0C27.2083 0 27.3958 0.0572917 27.5625 0.171875Z" fill="black"/>
</svg>
