<svg width="44" height="44" viewBox="0 0 44 44" fill="none" xmlns="http://www.w3.org/2000/svg">
<path d="M44 28.2535C44.0001 26.5752 43.437 24.9455 42.4009 23.6252C41.3648 22.3049 39.9157 21.3704 38.2855 20.9715C38.2181 18.3048 37.1117 15.7699 35.2023 13.9072C33.2928 12.0445 30.7313 11.0013 28.0638 11C26.5173 10.9989 24.9908 11.3494 23.5996 12.0249C22.2085 12.7005 20.9892 13.6834 20.0337 14.8995C19.2562 13.9009 18.1708 13.1869 16.946 12.8682C15.7212 12.5495 14.4255 12.644 13.2598 13.137C12.0942 13.63 11.1239 14.494 10.4995 15.5948C9.8751 16.6957 9.63149 17.9718 9.8065 19.2253C8.60684 19.0082 7.37416 19.0573 6.19554 19.369C5.01691 19.6806 3.9211 20.2473 2.98551 21.0289C2.04991 21.8105 1.29736 22.7881 0.78101 23.8924C0.264659 24.9968 -0.00289471 26.2011 -0.00275034 27.4203C-0.0020227 29.6283 0.875052 31.7457 2.43584 33.3075C3.99662 34.8693 6.11349 35.7478 8.3215 35.75H36.52C38.5051 35.7456 40.4073 34.9538 41.8092 33.5483C43.2111 32.1429 44.0007 30.2386 44 28.2535Z" fill="#17A1FA"/>
</svg>
